# xmcd
#
# Track frame offsets: 
#        150
#        16111
#        36385
#        50377
#        58710
#        72932
#        89135
#        106229
#        127143
#        142663
#        158349
#        170406
#
# Disc length: 2452 seconds
#
# Revision: 0
# Processed by: cddbd v1.5.2PL0 Copyright (c) Steve Scherf et al.
# Submitted via: ExactAudioCopy v1.0b3
#
DISCID=9c09920c
DTITLE=Tomislav Goluban and Little Pigeon's ForHill Blues - Med bregi
DYEAR=2012
DGENRE=Blues
TTITLE0=Med bregi feat. Tamara Obrovac
TTITLE1=Oci moje ocice feat. Zdenka Kovacicek
TTITLE2=Lepe ti je Zagorje zelene feat. Lela Kaplowitz
TTITLE3=Meknite se vse gore (Intro)
TTITLE4=Meknite se vse gore feat. Singrlice
TTITLE5=Jedna pura, dva pandura feat. Tamara Obrovac
TTITLE6=Rano v jutro
TTITLE7=Dobro mi dosel prijatelj feat. Lela Kaplowitz
TTITLE8=Grozdje blues feat. Ksenija Erker i Hana Hegedusic
TTITLE9=Bertija feat. Bojana Klepac
TTITLE10=Dedina polka feat. Zoran Peric
TTITLE11=Kusica blues
EXTD=
EXTT0=
EXTT1=
EXTT2=
EXTT3=
EXTT4=
EXTT5=
EXTT6=
EXTT7=
EXTT8=
EXTT9=
EXTT10=
EXTT11=
PLAYORDER=
